<?xml version="1.0" encoding="UTF-8" standalone="no"?>
<svg width="1196px" height="630px" viewBox="0 0 1196 630" version="1.1" xmlns="http://www.w3.org/2000/svg" xmlns:xlink="http://www.w3.org/1999/xlink" xmlns:sketch="http://www.bohemiancoding.com/sketch/ns">
    <!-- Generator: Sketch 3.3.2 (12043) - http://www.bohemiancoding.com/sketch -->
    <title>Group Copy</title>
    <desc>Created with Sketch.</desc>
    <defs>
        <rect id="path-1" x="0" y="0" width="1920" height="1081"></rect>
    </defs>
    <g id="Welcome" stroke="none" stroke-width="1" fill="none" fill-rule="evenodd" sketch:type="MSPage">
        <g id="Logo-Copy-3" sketch:type="MSArtboardGroup" transform="translate(-362.000000, 0.000000)">
            <g id="Rectangle-1">
                <use stroke="#C8C8C8" stroke-width="1" fill="#F6F6F6" fill-rule="evenodd" sketch:type="MSShapeGroup" xlink:href="#path-1"></use>
                <use stroke="none" fill="none" xlink:href="#path-1"></use>
            </g>
            <g id="Group-Copy" sketch:type="MSLayerGroup" transform="translate(362.000000, 0.000000)">
                <polygon id="Polygon-1-Copy-20" fill="#FFCB00" sketch:type="MSShapeGroup" transform="translate(545.653718, 22.500000) rotate(-180.000000) translate(-545.653718, -22.500000) " points="545.653718 -15 571.63448 30 519.672956 30 "></polygon>
                <polygon id="Polygon-1-Copy-21" fill="#FFCB00" sketch:type="MSShapeGroup" transform="translate(597.615242, 22.500000) rotate(-180.000000) translate(-597.615242, -22.500000) " points="597.615242 -15 623.596004 30 571.63448 30 "></polygon>
                <polygon id="Polygon-1-Copy-23" fill="#FFCB00" sketch:type="MSShapeGroup" transform="translate(701.538291, 22.500000) rotate(-180.000000) translate(-701.538291, -22.500000) " points="701.538291 -15 727.519053 30 675.557529 30 "></polygon>
                <polygon id="Polygon-1-Copy-26" fill="#FFCB00" sketch:type="MSShapeGroup" transform="translate(753.499815, 22.500000) rotate(-180.000000) translate(-753.499815, -22.500000) " points="753.499815 -15 779.480577 30 727.519053 30 "></polygon>
                <polygon id="Polygon-1-Copy-27" fill="#FFCB00" sketch:type="MSShapeGroup" transform="translate(805.461339, 22.500000) rotate(-180.000000) translate(-805.461339, -22.500000) " points="805.461339 -15 831.442101 30 779.480577 30 "></polygon>
                <polygon id="Polygon-1-Copy-28" fill="#FFCB00" sketch:type="MSShapeGroup" transform="translate(857.422863, 22.500000) rotate(-180.000000) translate(-857.422863, -22.500000) " points="857.422863 -15 883.403626 30 831.442101 30 "></polygon>
                <polygon id="Polygon-1-Copy-29" fill="#FFCB00" sketch:type="MSShapeGroup" transform="translate(909.384388, 22.500000) rotate(-180.000000) translate(-909.384388, -22.500000) " points="909.384388 -15 935.36515 30 883.403626 30 "></polygon>
                <polygon id="Polygon-1-Copy-31" fill="#FFCB00" sketch:type="MSShapeGroup" transform="translate(961.345912, 22.500000) rotate(-180.000000) translate(-961.345912, -22.500000) " points="961.345912 -15 987.326674 30 935.36515 30 "></polygon>
                <polygon id="Polygon-1-Copy-33" fill="#FBD542" sketch:type="MSShapeGroup" transform="translate(1013.307436, 22.500000) rotate(-180.000000) translate(-1013.307436, -22.500000) " points="1013.30744 -15 1039.2882 30 987.326674 30 "></polygon>
                <polygon id="Polygon-1-Copy-108" fill="#FBD542" sketch:type="MSShapeGroup" transform="translate(1039.288198, 157.500000) rotate(-180.000000) translate(-1039.288198, -157.500000) " points="1039.2882 120 1065.26896 165 1013.30744 165 "></polygon>
                <polygon id="Polygon-1-Copy-36" fill="#FFCB00" sketch:type="MSShapeGroup" transform="translate(1117.230485, 22.500000) rotate(-180.000000) translate(-1117.230485, -22.500000) " points="1117.23048 -15 1143.21125 30 1091.24972 30 "></polygon>
                <polygon id="Polygon-1-Copy-43" fill="#FFCB00" sketch:type="MSShapeGroup" transform="translate(1091.249722, 67.500000) rotate(-180.000000) translate(-1091.249722, -67.500000) " points="1091.24972 30 1117.23048 75 1065.26896 75 "></polygon>
                <polygon id="Polygon-1-Copy-44" fill="#FFCB00" sketch:type="MSShapeGroup" transform="translate(1039.288198, 67.500000) rotate(-180.000000) translate(-1039.288198, -67.500000) " points="1039.2882 30 1065.26896 75 1013.30744 75 "></polygon>
                <polygon id="Polygon-1-Copy-45" fill="#FFCB00" sketch:type="MSShapeGroup" transform="translate(935.365150, 67.500000) rotate(-180.000000) translate(-935.365150, -67.500000) " points="935.36515 30 961.345912 75 909.384388 75 "></polygon>
                <polygon id="Polygon-1-Copy-46" fill="#F4A610" sketch:type="MSShapeGroup" transform="translate(987.326674, 67.500000) rotate(-180.000000) translate(-987.326674, -67.500000) " points="987.326674 30 1013.30744 75 961.345912 75 "></polygon>
                <polygon id="Polygon-1-Copy-47" fill="#F4A610" sketch:type="MSShapeGroup" transform="translate(883.403626, 67.500000) rotate(-180.000000) translate(-883.403626, -67.500000) " points="883.403626 30 909.384388 75 857.422863 75 "></polygon>
                <polygon id="Polygon-1-Copy-11" fill="#F4A610" sketch:type="MSShapeGroup" points="415.749907 -15 441.73067 30 389.769145 30 "></polygon>
                <polygon id="Polygon-1-Copy-15" fill="#F4A610" sketch:type="MSShapeGroup" points="519.672956 -15 545.653718 30 493.692194 30 "></polygon>
                <polygon id="Polygon-1-Copy-59" fill="#F4A610" sketch:type="MSShapeGroup" points="493.692194 30 519.672956 75 467.711432 75 "></polygon>
                <polygon id="Polygon-1-Copy-82" fill="#F4A610" sketch:type="MSShapeGroup" points="415.749907 75 441.73067 120 389.769145 120 "></polygon>
                <polygon id="Polygon-1-Copy-83" fill="#F4A610" sketch:type="MSShapeGroup" points="467.711432 75 493.692194 120 441.73067 120 "></polygon>
                <polygon id="Polygon-1-Copy-16" fill="#F4A610" sketch:type="MSShapeGroup" points="571.63448 -15 597.615242 30 545.653718 30 "></polygon>
                <polygon id="Polygon-1-Copy-17" fill="#F4A610" sketch:type="MSShapeGroup" points="623.596004 -15 649.576766 30 597.615242 30 "></polygon>
                <polygon id="Polygon-1-Copy-24" fill="#F4A610" sketch:type="MSShapeGroup" points="727.519053 -15 753.499815 30 701.538291 30 "></polygon>
                <polygon id="Polygon-1-Copy-95" fill="#F4A610" sketch:type="MSShapeGroup" points="727.519053 75 753.499815 120 701.538291 120 "></polygon>
                <polygon id="Polygon-1-Copy-162" fill="#F4A610" sketch:type="MSShapeGroup" points="779.480577 255 805.461339 300 753.499815 300 "></polygon>
                <polygon id="Polygon-1-Copy-205" fill="#F4A610" sketch:type="MSShapeGroup" points="493.692194 390 519.672956 435 467.711432 435 "></polygon>
                <polygon id="Polygon-1-Copy-191" fill="#F4A610" sketch:type="MSShapeGroup" points="649.576766 210 675.557529 255 623.596004 255 "></polygon>
                <polygon id="Polygon-1-Copy-168" fill="#F4A610" sketch:type="MSShapeGroup" points="337.807621 210 363.788383 255 311.826859 255 "></polygon>
                <polygon id="Polygon-1-Copy-123" fill="#F4A610" sketch:type="MSShapeGroup" points="493.692194 120 519.672956 165 467.711432 165 "></polygon>
                <polygon id="Polygon-1-Copy-124" fill="#F4A610" sketch:type="MSShapeGroup" points="441.73067 120 467.711432 165 415.749907 165 "></polygon>
                <polygon id="Polygon-1-Copy-125" fill="#F4A610" sketch:type="MSShapeGroup" points="389.769145 120 415.749907 165 363.788383 165 "></polygon>
                <polygon id="Polygon-1-Copy-129" fill="#FFCB00" sketch:type="MSShapeGroup" points="285.846097 120 311.826859 165 259.865335 165 "></polygon>
                <polygon id="Polygon-1-Copy-130" fill="#FFCB00" sketch:type="MSShapeGroup" points="181.923048 120 207.903811 165 155.942286 165 "></polygon>
                <polygon id="Polygon-1-Copy-133" fill="#FFCB00" sketch:type="MSShapeGroup" points="259.865335 165 285.846097 210 233.884573 210 "></polygon>
                <polygon id="Polygon-1-Copy-134" fill="#FFCB00" sketch:type="MSShapeGroup" points="311.826859 165 337.807621 210 285.846097 210 "></polygon>
                <polygon id="Polygon-1-Copy-135" fill="#FFCB00" sketch:type="MSShapeGroup" points="363.788383 165 389.769145 210 337.807621 210 "></polygon>
                <polygon id="Polygon-1-Copy-136" fill="#FFCB00" sketch:type="MSShapeGroup" points="415.749907 165 441.73067 210 389.769145 210 "></polygon>
                <polygon id="Polygon-1-Copy-137" fill="#FFCB00" sketch:type="MSShapeGroup" points="467.711432 165 493.692194 210 441.73067 210 "></polygon>
                <polygon id="Polygon-1-Copy-138" fill="#FFCB00" sketch:type="MSShapeGroup" points="519.672956 165 545.653718 210 493.692194 210 "></polygon>
                <polygon id="Polygon-1-Copy-139" fill="#FFCB00" sketch:type="MSShapeGroup" points="571.63448 165 597.615242 210 545.653718 210 "></polygon>
                <polygon id="Polygon-1-Copy-147" fill="#FFCB00" sketch:type="MSShapeGroup" points="623.596004 165 649.576766 210 597.615242 210 "></polygon>
                <polygon id="Polygon-1-Copy-163" fill="#FFCB00" sketch:type="MSShapeGroup" points="597.615242 210 623.596004 255 571.63448 255 "></polygon>
                <polygon id="Polygon-1-Copy-165" fill="#FFCB00" sketch:type="MSShapeGroup" points="545.653718 210 571.63448 255 519.672956 255 "></polygon>
                <polygon id="Polygon-1-Copy-166" fill="#FFCB00" sketch:type="MSShapeGroup" points="493.692194 210 519.672956 255 467.711432 255 "></polygon>
                <polygon id="Polygon-1-Copy-172" fill="#FFCB00" sketch:type="MSShapeGroup" points="467.711432 255 493.692194 300 441.73067 300 "></polygon>
                <polygon id="Polygon-1-Copy-180" fill="#FFCB00" sketch:type="MSShapeGroup" points="493.692194 300 519.672956 345 467.711432 345 "></polygon>
                <polygon id="Polygon-1-Copy-173" fill="#FFCB00" sketch:type="MSShapeGroup" points="519.672956 255 545.653718 300 493.692194 300 "></polygon>
                <polygon id="Polygon-1-Copy-174" fill="#FFCB00" sketch:type="MSShapeGroup" points="571.63448 255 597.615242 300 545.653718 300 "></polygon>
                <polygon id="Polygon-1-Copy-175" fill="#FFCB00" sketch:type="MSShapeGroup" points="623.596004 255 649.576766 300 597.615242 300 "></polygon>
                <polygon id="Polygon-1-Copy-187" fill="#FFCB00" sketch:type="MSShapeGroup" points="649.576766 300 675.557529 345 623.596004 345 "></polygon>
                <polygon id="Polygon-1-Copy-199" fill="#FFCB00" sketch:type="MSShapeGroup" points="675.557529 345 701.538291 390 649.576766 390 "></polygon>
                <polygon id="Polygon-1-Copy-212" fill="#FFCB00" sketch:type="MSShapeGroup" points="623.596004 435 649.576766 480 597.615242 480 "></polygon>
                <polygon id="Polygon-1-Copy-218" fill="#FBD542" sketch:type="MSShapeGroup" points="597.615242 480 623.596004 525 571.63448 525 "></polygon>
                <polygon id="Polygon-1-Copy-221" fill="#FBD542" sketch:type="MSShapeGroup" points="597.615242 570 623.596004 615 571.63448 615 "></polygon>
                <polygon id="Polygon-1-Copy-215" fill="#FFCB00" sketch:type="MSShapeGroup" points="519.672956 435 545.653718 480 493.692194 480 "></polygon>
                <polygon id="Polygon-1-Copy-216" fill="#FFCB00" sketch:type="MSShapeGroup" points="467.711432 435 493.692194 480 441.73067 480 "></polygon>
                <polygon id="Polygon-1-Copy-167" fill="#FFCB00" sketch:type="MSShapeGroup" points="389.769145 210 415.749907 255 363.788383 255 "></polygon>
                <polygon id="Polygon-1-Copy-25" fill="#F4A610" sketch:type="MSShapeGroup" points="779.480577 -15 805.461339 30 753.499815 30 "></polygon>
                <polygon id="Polygon-1-Copy-30" fill="#F4A610" sketch:type="MSShapeGroup" points="883.403626 -15 909.384388 30 857.422863 30 "></polygon>
                <polygon id="Polygon-1-Copy-32" fill="#F4A610" sketch:type="MSShapeGroup" points="987.326674 -15 1013.30744 30 961.345912 30 "></polygon>
                <polygon id="Polygon-1-Copy-37" fill="#F4A610" sketch:type="MSShapeGroup" points="1143.21125 -15 1169.19201 30 1117.23048 30 "></polygon>
                <polygon id="Polygon-1-Copy-38" fill="#FBD542" sketch:type="MSShapeGroup" points="1169.19201 30 1195.17277 75 1143.21125 75 "></polygon>
                <polygon id="Polygon-1-Copy-39" fill="#FBD542" sketch:type="MSShapeGroup" points="1117.23048 30 1143.21125 75 1091.24972 75 "></polygon>
                <polygon id="Polygon-1-Copy-40" fill="#FBD542" sketch:type="MSShapeGroup" points="1065.26896 30 1091.24972 75 1039.2882 75 "></polygon>
                <polygon id="Polygon-1-Copy-41" fill="#FBD542" sketch:type="MSShapeGroup" points="1013.30744 30 1039.2882 75 987.326674 75 "></polygon>
                <polygon id="Polygon-1-Copy-42" fill="#FBD542" sketch:type="MSShapeGroup" points="961.345912 30 987.326674 75 935.36515 75 "></polygon>
                <polygon id="Polygon-1-Copy-103" fill="#FBD542" sketch:type="MSShapeGroup" points="935.36515 75 961.345912 120 909.384388 120 "></polygon>
                <polygon id="Polygon-1-Copy-104" fill="#FBD542" sketch:type="MSShapeGroup" points="987.326674 75 1013.30744 120 961.345912 120 "></polygon>
                <polygon id="Polygon-1-Copy-105" fill="#FBD542" sketch:type="MSShapeGroup" points="1039.2882 75 1065.26896 120 1013.30744 120 "></polygon>
                <polygon id="Polygon-1-Copy-106" fill="#FBD542" sketch:type="MSShapeGroup" points="1039.2882 75 1065.26896 120 1013.30744 120 "></polygon>
                <polygon id="Polygon-1-Copy-109" fill="#FBD542" sketch:type="MSShapeGroup" points="961.345912 120 987.326674 165 935.36515 165 "></polygon>
                <polygon id="Polygon-1-Copy-156" fill="#FBD542" sketch:type="MSShapeGroup" points="857.422863 210 883.403626 255 831.442101 255 "></polygon>
                <polygon id="Polygon-1-Copy-157" fill="#FBD542" sketch:type="MSShapeGroup" points="805.461339 210 831.442101 255 779.480577 255 "></polygon>
                <polygon id="Polygon-1-Copy-158" fill="#FBD542" sketch:type="MSShapeGroup" points="753.499815 210 779.480577 255 727.519053 255 "></polygon>
                <polygon id="Polygon-1-Copy-190" fill="#FBD542" sketch:type="MSShapeGroup" points="727.519053 255 753.499815 300 701.538291 300 "></polygon>
                <polygon id="Polygon-1-Copy-193" fill="#FBD542" sketch:type="MSShapeGroup" points="701.538291 300 727.519053 345 675.557529 345 "></polygon>
                <polygon id="Polygon-1-Copy-194" fill="#FBD542" sketch:type="MSShapeGroup" points="753.499815 300 779.480577 345 727.519053 345 "></polygon>
                <polygon id="Polygon-1-Copy-195" fill="#FBD542" sketch:type="MSShapeGroup" points="805.461339 300 831.442101 345 779.480577 345 "></polygon>
                <polygon id="Polygon-1-Copy-197" fill="#FBD542" sketch:type="MSShapeGroup" points="779.480577 345 805.461339 390 753.499815 390 "></polygon>
                <polygon id="Polygon-1-Copy-198" fill="#FBD542" sketch:type="MSShapeGroup" points="727.519053 345 753.499815 390 701.538291 390 "></polygon>
                <polygon id="Polygon-1-Copy-210" fill="#FBD542" sketch:type="MSShapeGroup" points="701.538291 390 727.519053 435 675.557529 435 "></polygon>
                <polygon id="Polygon-1-Copy-110" fill="#FBD542" sketch:type="MSShapeGroup" points="909.384388 120 935.36515 165 883.403626 165 "></polygon>
                <polygon id="Polygon-1-Copy-115" fill="#FBD542" sketch:type="MSShapeGroup" points="753.499815 120 779.480577 165 727.519053 165 "></polygon>
                <polygon id="Polygon-1-Copy-116" fill="#FBD542" sketch:type="MSShapeGroup" points="701.538291 120 727.519053 165 675.557529 165 "></polygon>
                <polygon id="Polygon-1-Copy-149" fill="#FBD542" sketch:type="MSShapeGroup" points="727.519053 165 753.499815 210 701.538291 210 "></polygon>
                <polygon id="Polygon-1-Copy-170" fill="#FBD542" sketch:type="MSShapeGroup" points="363.788383 255 389.769145 300 337.807621 300 "></polygon>
                <polygon id="Polygon-1-Copy-171" fill="#FBD542" sketch:type="MSShapeGroup" points="389.769145 300 415.749907 345 363.788383 345 "></polygon>
                <polygon id="Polygon-1-Copy-150" fill="#FBD542" sketch:type="MSShapeGroup" points="779.480577 165 805.461339 210 753.499815 210 "></polygon>
                <polygon id="Polygon-1-Copy-151" fill="#FBD542" sketch:type="MSShapeGroup" points="831.442101 165 857.422863 210 805.461339 210 "></polygon>
                <polygon id="Polygon-1-Copy-152" fill="#FBD542" sketch:type="MSShapeGroup" points="883.403626 165 909.384388 210 857.422863 210 "></polygon>
                <polygon id="Polygon-1-Copy-153" fill="#FBD542" sketch:type="MSShapeGroup" points="935.36515 165 961.345912 210 909.384388 210 "></polygon>
                <polygon id="Polygon-1-Copy-117" fill="#FBD542" sketch:type="MSShapeGroup" points="649.576766 120 675.557529 165 623.596004 165 "></polygon>
                <polygon id="Polygon-1-Copy-118" fill="#FBD542" sketch:type="MSShapeGroup" points="597.615242 120 623.596004 165 571.63448 165 "></polygon>
                <polygon id="Polygon-1-Copy-119" fill="#FBD542" sketch:type="MSShapeGroup" points="545.653718 120 571.63448 165 519.672956 165 "></polygon>
                <polygon id="Polygon-1-Copy-107" fill="#FBD542" sketch:type="MSShapeGroup" points="1091.24972 75 1117.23048 120 1065.26896 120 "></polygon>
                <polygon id="Polygon-1-Copy-50" fill="#FBD542" sketch:type="MSShapeGroup" points="805.461339 30 831.442101 75 779.480577 75 "></polygon>
                <polygon id="Polygon-1-Copy-53" fill="#FBD542" sketch:type="MSShapeGroup" points="701.538291 30 727.519053 75 675.557529 75 "></polygon>
                <polygon id="Polygon-1-Copy-93" fill="#FBD542" sketch:type="MSShapeGroup" points="623.596004 75 649.576766 120 597.615242 120 "></polygon>
                <polygon id="Polygon-1-Copy-94" fill="#FBD542" sketch:type="MSShapeGroup" points="675.557529 75 701.538291 120 649.576766 120 "></polygon>
                <polygon id="Polygon-1-Copy-96" fill="#FBD542" sketch:type="MSShapeGroup" points="779.480577 75 805.461339 120 753.499815 120 "></polygon>
                <polygon id="Polygon-1-Copy-54" fill="#FBD542" sketch:type="MSShapeGroup" points="649.576766 30 675.557529 75 623.596004 75 "></polygon>
                <polygon id="Polygon-1-Copy-55" fill="#FBD542" sketch:type="MSShapeGroup" points="597.615242 30 623.596004 75 571.63448 75 "></polygon>
                <polygon id="Polygon-1-Copy-62" fill="#FBD542" sketch:type="MSShapeGroup" points="441.73067 30 467.711432 75 415.749907 75 "></polygon>
                <polygon id="Polygon-1-Copy-66" fill="#FBD542" sketch:type="MSShapeGroup" points="389.769145 30 415.749907 75 363.788383 75 "></polygon>
                <polygon id="Polygon-1-Copy-80" fill="#FBD542" sketch:type="MSShapeGroup" points="363.788383 75 389.769145 120 337.807621 120 "></polygon>
                <polygon id="Polygon-1-Copy-68" fill="#FEE480" sketch:type="MSShapeGroup" points="337.807621 30 363.788383 75 311.826859 75 "></polygon>
                <polygon id="Polygon-1-Copy-87" fill="#FEE480" sketch:type="MSShapeGroup" points="519.672956 75 545.653718 120 493.692194 120 "></polygon>
                <polygon id="Polygon-1-Copy-71" fill="#FEE480" sketch:type="MSShapeGroup" points="129.961524 30 155.942286 75 103.980762 75 "></polygon>
                <polygon id="Polygon-1-Copy-67" fill="#FBD542" sketch:type="MSShapeGroup" points="285.846097 30 311.826859 75 259.865335 75 "></polygon>
                <polygon id="Polygon-1-Copy-70" fill="#FBD542" sketch:type="MSShapeGroup" points="181.923048 30 207.903811 75 155.942286 75 "></polygon>
                <polygon id="Polygon-1-Copy-132" fill="#FBD542" sketch:type="MSShapeGroup" points="155.942286 165 181.923048 210 129.961524 210 "></polygon>
                <polygon id="Polygon-1-Copy-75" fill="#FBD542" sketch:type="MSShapeGroup" points="78 30 103.980762 75 52.0192379 75 "></polygon>
                <polygon id="Polygon-1-Copy-76" fill="#FBD542" sketch:type="MSShapeGroup" points="26.0384758 30 52.0192379 75 0.0577136594 75 "></polygon>
                <polygon id="Polygon-1-Copy-52" fill="#FEE480" sketch:type="MSShapeGroup" points="753.499815 30 779.480577 75 727.519053 75 "></polygon>
                <polygon id="Polygon-1-Copy-169" fill="#FEE480" sketch:type="MSShapeGroup" points="285.846097 210 311.826859 255 259.865335 255 "></polygon>
                <polygon id="Polygon-1-Copy-185" fill="#FEE480" sketch:type="MSShapeGroup" points="545.653718 300 571.63448 345 519.672956 345 "></polygon>
                <polygon id="Polygon-1-Copy-201" fill="#FEE480" sketch:type="MSShapeGroup" points="519.672956 345 545.653718 390 493.692194 390 "></polygon>
                <polygon id="Polygon-1-Copy-204" fill="#FEE480" sketch:type="MSShapeGroup" points="545.653718 390 571.63448 435 519.672956 435 "></polygon>
                <polygon id="Polygon-1-Copy-186" fill="#FEE480" sketch:type="MSShapeGroup" points="597.615242 300 623.596004 345 571.63448 345 "></polygon>
                <polygon id="Polygon-1-Copy-200" fill="#FEE480" sketch:type="MSShapeGroup" points="623.596004 345 649.576766 390 597.615242 390 "></polygon>
                <polygon id="Polygon-1-Copy-208" fill="#FEE480" sketch:type="MSShapeGroup" points="649.576766 390 675.557529 435 623.596004 435 "></polygon>
                <polygon id="Polygon-1-Copy-213" fill="#FEE480" sketch:type="MSShapeGroup" points="571.63448 435 597.615242 480 545.653718 480 "></polygon>
                <polygon id="Polygon-1-Copy-220" fill="#FEE480" sketch:type="MSShapeGroup" points="571.63448 525 597.615242 570 545.653718 570 "></polygon>
                <polygon id="Polygon-1-Copy-217" fill="#FEE480" sketch:type="MSShapeGroup" points="649.576766 480 675.557529 525 623.596004 525 "></polygon>
                <polygon id="Polygon-1-Copy-102" fill="#FEE480" sketch:type="MSShapeGroup" points="883.403626 75 909.384388 120 857.422863 120 "></polygon>
                <polygon id="Polygon-1-Copy-51" fill="#FBD542" sketch:type="MSShapeGroup" points="857.422863 30 883.403626 75 831.442101 75 "></polygon>
                <polygon id="Polygon-1-Copy-34" fill="#FFCB00" sketch:type="MSShapeGroup" points="1039.2882 -15 1065.26896 30 1013.30744 30 "></polygon>
                <polygon id="Polygon-1-Copy-35" fill="#FFCB00" sketch:type="MSShapeGroup" points="1091.24972 -15 1117.23048 30 1065.26896 30 "></polygon>
                <polygon id="Polygon-1" fill="#F4A610" sketch:type="MSShapeGroup" points="52.0192379 -15 78 30 26.0384758 30 "></polygon>
                <polygon id="Polygon-1-Copy-4" fill="#FFCB00" sketch:type="MSShapeGroup" transform="translate(26.038476, 22.500000) rotate(-180.000000) translate(-26.038476, -22.500000) " points="26.0384758 -15 52.0192379 30 0.0577136594 30 "></polygon>
                <polygon id="Polygon-1-Copy-5" fill="#FFCB00" sketch:type="MSShapeGroup" transform="translate(78.000000, 22.500000) rotate(-180.000000) translate(-78.000000, -22.500000) " points="78 -15 103.980762 30 52.0192379 30 "></polygon>
                <polygon id="Polygon-1-Copy-6" fill="#FFCB00" sketch:type="MSShapeGroup" transform="translate(129.961524, 22.500000) rotate(-180.000000) translate(-129.961524, -22.500000) " points="129.961524 -15 155.942286 30 103.980762 30 "></polygon>
                <polygon id="Polygon-1-Copy-7" fill="#FFCB00" sketch:type="MSShapeGroup" transform="translate(181.923048, 22.500000) rotate(-180.000000) translate(-181.923048, -22.500000) " points="181.923048 -15 207.903811 30 155.942286 30 "></polygon>
                <polygon id="Polygon-1-Copy-12" fill="#FBD542" sketch:type="MSShapeGroup" transform="translate(337.807621, 22.500000) rotate(-180.000000) translate(-337.807621, -22.500000) " points="337.807621 -15 363.788383 30 311.826859 30 "></polygon>
                <polygon id="Polygon-1-Copy-13" fill="#FBD542" sketch:type="MSShapeGroup" transform="translate(389.769145, 22.500000) rotate(-180.000000) translate(-389.769145, -22.500000) " points="389.769145 -15 415.749907 30 363.788383 30 "></polygon>
                <polygon id="Polygon-1-Copy-18" fill="#FEE480" sketch:type="MSShapeGroup" transform="translate(441.730670, 22.500000) rotate(-180.000000) translate(-441.730670, -22.500000) " points="441.73067 -15 467.711432 30 415.749907 30 "></polygon>
                <polygon id="Polygon-1-Copy-79" fill="#FEE480" sketch:type="MSShapeGroup" transform="translate(337.807621, 112.500000) rotate(-180.000000) translate(-337.807621, -112.500000) " points="337.807621 75 363.788383 120 311.826859 120 "></polygon>
                <polygon id="Polygon-1-Copy-84" fill="#FEE480" sketch:type="MSShapeGroup" transform="translate(441.730670, 112.500000) rotate(-180.000000) translate(-441.730670, -112.500000) " points="441.73067 75 467.711432 120 415.749907 120 "></polygon>
                <polygon id="Polygon-1-Copy-19" fill="#FBD542" sketch:type="MSShapeGroup" transform="translate(493.692194, 22.500000) rotate(-180.000000) translate(-493.692194, -22.500000) " points="493.692194 -15 519.672956 30 467.711432 30 "></polygon>
                <polygon id="Polygon-1-Copy-85" fill="#FBD542" sketch:type="MSShapeGroup" transform="translate(493.692194, 112.500000) rotate(-180.000000) translate(-493.692194, -112.500000) " points="493.692194 75 519.672956 120 467.711432 120 "></polygon>
                <polygon id="Polygon-1-Copy-160" fill="#FBD542" sketch:type="MSShapeGroup" transform="translate(675.557529, 247.500000) rotate(-180.000000) translate(-675.557529, -247.500000) " points="675.557529 210 701.538291 255 649.576766 255 "></polygon>
                <polygon id="Polygon-1-Copy-126" fill="#FBD542" sketch:type="MSShapeGroup" transform="translate(467.711432, 157.500000) rotate(-180.000000) translate(-467.711432, -157.500000) " points="467.711432 120 493.692194 165 441.73067 165 "></polygon>
                <polygon id="Polygon-1-Copy-127" fill="#FBD542" sketch:type="MSShapeGroup" transform="translate(415.749907, 157.500000) rotate(-180.000000) translate(-415.749907, -157.500000) " points="415.749907 120 441.73067 165 389.769145 165 "></polygon>
                <polygon id="Polygon-1-Copy-128" fill="#FBD542" sketch:type="MSShapeGroup" transform="translate(363.788383, 157.500000) rotate(-180.000000) translate(-363.788383, -157.500000) " points="363.788383 120 389.769145 165 337.807621 165 "></polygon>
                <polygon id="Polygon-1-Copy-140" fill="#FBD542" sketch:type="MSShapeGroup" transform="translate(337.807621, 202.500000) rotate(-180.000000) translate(-337.807621, -202.500000) " points="337.807621 165 363.788383 210 311.826859 210 "></polygon>
                <polygon id="Polygon-1-Copy-141" fill="#FBD542" sketch:type="MSShapeGroup" transform="translate(389.769145, 202.500000) rotate(-180.000000) translate(-389.769145, -202.500000) " points="389.769145 165 415.749907 210 363.788383 210 "></polygon>
                <polygon id="Polygon-1-Copy-142" fill="#FBD542" sketch:type="MSShapeGroup" transform="translate(493.692194, 202.500000) rotate(-180.000000) translate(-493.692194, -202.500000) " points="493.692194 165 519.672956 210 467.711432 210 "></polygon>
                <polygon id="Polygon-1-Copy-143" fill="#FBD542" sketch:type="MSShapeGroup" transform="translate(545.653718, 202.500000) rotate(-180.000000) translate(-545.653718, -202.500000) " points="545.653718 165 571.63448 210 519.672956 210 "></polygon>
                <polygon id="Polygon-1-Copy-146" fill="#FBD542" sketch:type="MSShapeGroup" transform="translate(649.576766, 202.500000) rotate(-180.000000) translate(-649.576766, -202.500000) " points="649.576766 165 675.557529 210 623.596004 210 "></polygon>
                <polygon id="Polygon-1-Copy-161" fill="#FBD542" sketch:type="MSShapeGroup" transform="translate(623.596004, 247.500000) rotate(-180.000000) translate(-623.596004, -247.500000) " points="623.596004 210 649.576766 255 597.615242 255 "></polygon>
                <polygon id="Polygon-1-Copy-176" fill="#FBD542" sketch:type="MSShapeGroup" transform="translate(545.653718, 292.500000) rotate(-180.000000) translate(-545.653718, -292.500000) " points="545.653718 255 571.63448 300 519.672956 300 "></polygon>
                <polygon id="Polygon-1-Copy-177" fill="#FBD542" sketch:type="MSShapeGroup" transform="translate(597.615242, 292.500000) rotate(-180.000000) translate(-597.615242, -292.500000) " points="597.615242 255 623.596004 300 571.63448 300 "></polygon>
                <polygon id="Polygon-1-Copy-178" fill="#FBD542" sketch:type="MSShapeGroup" transform="translate(649.576766, 292.500000) rotate(-180.000000) translate(-649.576766, -292.500000) " points="649.576766 255 675.557529 300 623.596004 300 "></polygon>
                <polygon id="Polygon-1-Copy-179" fill="#FBD542" sketch:type="MSShapeGroup" transform="translate(441.730670, 292.500000) rotate(-180.000000) translate(-441.730670, -292.500000) " points="441.73067 255 467.711432 300 415.749907 300 "></polygon>
                <polygon id="Polygon-1-Copy-181" fill="#FBD542" sketch:type="MSShapeGroup" transform="translate(467.711432, 337.500000) rotate(-180.000000) translate(-467.711432, -337.500000) " points="467.711432 300 493.692194 345 441.73067 345 "></polygon>
                <polygon id="Polygon-1-Copy-182" fill="#FBD542" sketch:type="MSShapeGroup" transform="translate(519.672956, 337.500000) rotate(-180.000000) translate(-519.672956, -337.500000) " points="519.672956 300 545.653718 345 493.692194 345 "></polygon>
                <polygon id="Polygon-1-Copy-183" fill="#FBD542" sketch:type="MSShapeGroup" transform="translate(571.634480, 337.500000) rotate(-180.000000) translate(-571.634480, -337.500000) " points="571.63448 300 597.615242 345 545.653718 345 "></polygon>
                <polygon id="Polygon-1-Copy-206" fill="#FBD542" sketch:type="MSShapeGroup" transform="translate(571.634480, 427.500000) rotate(-180.000000) translate(-571.634480, -427.500000) " points="571.63448 390 597.615242 435 545.653718 435 "></polygon>
                <polygon id="Polygon-1-Copy-214" fill="#FBD542" sketch:type="MSShapeGroup" transform="translate(545.653718, 472.500000) rotate(-180.000000) translate(-545.653718, -472.500000) " points="545.653718 435 571.63448 480 519.672956 480 "></polygon>
                <polygon id="Polygon-1-Copy-207" fill="#FBD542" sketch:type="MSShapeGroup" transform="translate(623.596004, 427.500000) rotate(-180.000000) translate(-623.596004, -427.500000) " points="623.596004 390 649.576766 435 597.615242 435 "></polygon>
                <polygon id="Polygon-1-Copy-211" fill="#FBD542" sketch:type="MSShapeGroup" transform="translate(649.576766, 472.500000) rotate(-180.000000) translate(-649.576766, -472.500000) " points="649.576766 435 675.557529 480 623.596004 480 "></polygon>
                <polygon id="Polygon-1-Copy-209" fill="#FFCB00" sketch:type="MSShapeGroup" transform="translate(675.557529, 427.500000) rotate(-180.000000) translate(-675.557529, -427.500000) " points="675.557529 390 701.538291 435 649.576766 435 "></polygon>
                <polygon id="Polygon-1-Copy-202" fill="#FBD542" sketch:type="MSShapeGroup" transform="translate(649.576766, 382.500000) rotate(-180.000000) translate(-649.576766, -382.500000) " points="649.576766 345 675.557529 390 623.596004 390 "></polygon>
                <polygon id="Polygon-1-Copy-203" fill="#FBD542" sketch:type="MSShapeGroup" transform="translate(597.615242, 382.500000) rotate(-180.000000) translate(-597.615242, -382.500000) " points="597.615242 345 623.596004 390 571.63448 390 "></polygon>
                <polygon id="Polygon-1-Copy-184" fill="#FBD542" sketch:type="MSShapeGroup" transform="translate(623.596004, 337.500000) rotate(-180.000000) translate(-623.596004, -337.500000) " points="623.596004 300 649.576766 345 597.615242 345 "></polygon>
                <polygon id="Polygon-1-Copy-192" fill="#FBD542" sketch:type="MSShapeGroup" transform="translate(675.557529, 337.500000) rotate(-180.000000) translate(-675.557529, -337.500000) " points="675.557529 300 701.538291 345 649.576766 345 "></polygon>
                <polygon id="Polygon-1-Copy-131" fill="#FBD542" sketch:type="MSShapeGroup" transform="translate(207.903811, 157.500000) rotate(-180.000000) translate(-207.903811, -157.500000) " points="207.903811 120 233.884573 165 181.923048 165 "></polygon>
                <polygon id="Polygon-1-Copy-60" fill="#FBD542" sketch:type="MSShapeGroup" transform="translate(519.672956, 67.500000) rotate(-180.000000) translate(-519.672956, -67.500000) " points="519.672956 30 545.653718 75 493.692194 75 "></polygon>
                <polygon id="Polygon-1-Copy" fill="#F4A610" sketch:type="MSShapeGroup" points="103.980762 -15 129.961524 30 78 30 "></polygon>
                <polygon id="Polygon-1-Copy-2" fill="#F4A610" sketch:type="MSShapeGroup" points="155.942286 -15 181.923048 30 129.961524 30 "></polygon>
                <polygon id="Polygon-1-Copy-74" fill="#F4A610" sketch:type="MSShapeGroup" points="155.942286 75 181.923048 120 129.961524 120 "></polygon>
                <polygon id="Polygon-1-Copy-77" fill="#F4A610" sketch:type="MSShapeGroup" points="259.865335 75 285.846097 120 233.884573 120 "></polygon>
                <polygon id="Polygon-1-Copy-3" fill="#F4A610" sketch:type="MSShapeGroup" points="207.903811 -15 233.884573 30 181.923048 30 "></polygon>
                <polygon id="Polygon-1-Copy-9" fill="#F4A610" sketch:type="MSShapeGroup" points="311.826859 -15 337.807621 30 285.846097 30 "></polygon>
                <polygon id="Polygon-1-Copy-8" fill="#FFCB00" sketch:type="MSShapeGroup" points="259.865335 -15 285.846097 30 233.884573 30 "></polygon>
                <polygon id="Polygon-1-Copy-10" fill="#FFCB00" sketch:type="MSShapeGroup" points="363.788383 -15 389.769145 30 337.807621 30 "></polygon>
                <polygon id="Polygon-1-Copy-14" fill="#FFCB00" sketch:type="MSShapeGroup" points="467.711432 2.13162821e-14 493.692194 45 441.73067 45 "></polygon>
                <polygon id="Polygon-1-Copy-22" fill="#FBD542" sketch:type="MSShapeGroup" points="675.557529 2.13162821e-14 701.538291 45 649.576766 45 "></polygon>
                <polygon id="Polygon-1-Copy-48" fill="#FFCB00" sketch:type="MSShapeGroup" transform="translate(831.442101, 67.500000) rotate(-180.000000) translate(-831.442101, -67.500000) " points="831.442101 30 857.422863 75 805.461339 75 "></polygon>
                <polygon id="Polygon-1-Copy-49" fill="#FFCB00" sketch:type="MSShapeGroup" transform="translate(779.480577, 67.500000) rotate(-180.000000) translate(-779.480577, -67.500000) " points="779.480577 30 805.461339 75 753.499815 75 "></polygon>
                <polygon id="Polygon-1-Copy-56" fill="#FFCB00" sketch:type="MSShapeGroup" transform="translate(675.557529, 67.500000) rotate(-180.000000) translate(-675.557529, -67.500000) " points="675.557529 30 701.538291 75 649.576766 75 "></polygon>
                <polygon id="Polygon-1-Copy-57" fill="#FFCB00" sketch:type="MSShapeGroup" transform="translate(623.596004, 67.500000) rotate(-180.000000) translate(-623.596004, -67.500000) " points="623.596004 30 649.576766 75 597.615242 75 "></polygon>
                <polygon id="Polygon-1-Copy-58" fill="#FFCB00" sketch:type="MSShapeGroup" transform="translate(571.634480, 67.500000) rotate(-180.000000) translate(-571.634480, -67.500000) " points="571.63448 30 597.615242 75 545.653718 75 "></polygon>
                <polygon id="Polygon-1-Copy-61" fill="#FFCB00" sketch:type="MSShapeGroup" transform="translate(467.711432, 67.500000) rotate(-180.000000) translate(-467.711432, -67.500000) " points="467.711432 30 493.692194 75 441.73067 75 "></polygon>
                <polygon id="Polygon-1-Copy-63" fill="#FFCB00" sketch:type="MSShapeGroup" transform="translate(363.788383, 67.500000) rotate(-180.000000) translate(-363.788383, -67.500000) " points="363.788383 30 389.769145 75 337.807621 75 "></polygon>
                <polygon id="Polygon-1-Copy-81" fill="#FFCB00" sketch:type="MSShapeGroup" transform="translate(389.769145, 112.500000) rotate(-180.000000) translate(-389.769145, -112.500000) " points="389.769145 75 415.749907 120 363.788383 120 "></polygon>
                <polygon id="Polygon-1-Copy-86" fill="#FFCB00" sketch:type="MSShapeGroup" transform="translate(545.653718, 112.500000) rotate(-180.000000) translate(-545.653718, -112.500000) " points="545.653718 75 571.63448 120 519.672956 120 "></polygon>
                <polygon id="Polygon-1-Copy-88" fill="#FFCB00" sketch:type="MSShapeGroup" transform="translate(597.615242, 112.500000) rotate(-180.000000) translate(-597.615242, -112.500000) " points="597.615242 75 623.596004 120 571.63448 120 "></polygon>
                <polygon id="Polygon-1-Copy-89" fill="#FFCB00" sketch:type="MSShapeGroup" transform="translate(649.576766, 112.500000) rotate(-180.000000) translate(-649.576766, -112.500000) " points="649.576766 75 675.557529 120 623.596004 120 "></polygon>
                <polygon id="Polygon-1-Copy-90" fill="#FFCB00" sketch:type="MSShapeGroup" transform="translate(701.538291, 112.500000) rotate(-180.000000) translate(-701.538291, -112.500000) " points="701.538291 75 727.519053 120 675.557529 120 "></polygon>
                <polygon id="Polygon-1-Copy-91" fill="#FFCB00" sketch:type="MSShapeGroup" transform="translate(753.499815, 112.500000) rotate(-180.000000) translate(-753.499815, -112.500000) " points="753.499815 75 779.480577 120 727.519053 120 "></polygon>
                <polygon id="Polygon-1-Copy-92" fill="#FFCB00" sketch:type="MSShapeGroup" transform="translate(805.461339, 112.500000) rotate(-180.000000) translate(-805.461339, -112.500000) " points="805.461339 75 831.442101 120 779.480577 120 "></polygon>
                <polygon id="Polygon-1-Copy-97" fill="#FFCB00" sketch:type="MSShapeGroup" transform="translate(857.422863, 112.500000) rotate(-180.000000) translate(-857.422863, -112.500000) " points="857.422863 75 883.403626 120 831.442101 120 "></polygon>
                <polygon id="Polygon-1-Copy-98" fill="#FFCB00" sketch:type="MSShapeGroup" transform="translate(857.422863, 112.500000) rotate(-180.000000) translate(-857.422863, -112.500000) " points="857.422863 75 883.403626 120 831.442101 120 "></polygon>
                <polygon id="Polygon-1-Copy-99" fill="#FFCB00" sketch:type="MSShapeGroup" transform="translate(909.384388, 112.500000) rotate(-180.000000) translate(-909.384388, -112.500000) " points="909.384388 75 935.36515 120 883.403626 120 "></polygon>
                <polygon id="Polygon-1-Copy-100" fill="#FFCB00" sketch:type="MSShapeGroup" transform="translate(961.345912, 112.500000) rotate(-180.000000) translate(-961.345912, -112.500000) " points="961.345912 75 987.326674 120 935.36515 120 "></polygon>
                <polygon id="Polygon-1-Copy-111" fill="#FFCB00" sketch:type="MSShapeGroup" transform="translate(883.403626, 157.500000) rotate(-180.000000) translate(-883.403626, -157.500000) " points="883.403626 120 909.384388 165 857.422863 165 "></polygon>
                <polygon id="Polygon-1-Copy-112" fill="#FFCB00" sketch:type="MSShapeGroup" transform="translate(831.442101, 157.500000) rotate(-180.000000) translate(-831.442101, -157.500000) " points="831.442101 120 857.422863 165 805.461339 165 "></polygon>
                <polygon id="Polygon-1-Copy-113" fill="#FFCB00" sketch:type="MSShapeGroup" transform="translate(779.480577, 157.500000) rotate(-180.000000) translate(-779.480577, -157.500000) " points="779.480577 120 805.461339 165 753.499815 165 "></polygon>
                <polygon id="Polygon-1-Copy-114" fill="#FFCB00" sketch:type="MSShapeGroup" transform="translate(727.519053, 157.500000) rotate(-180.000000) translate(-727.519053, -157.500000) " points="727.519053 120 753.499815 165 701.538291 165 "></polygon>
                <polygon id="Polygon-1-Copy-148" fill="#FFCB00" sketch:type="MSShapeGroup" transform="translate(701.538291, 202.500000) rotate(-180.000000) translate(-701.538291, -202.500000) " points="701.538291 165 727.519053 210 675.557529 210 "></polygon>
                <polygon id="Polygon-1-Copy-120" fill="#F4A610" sketch:type="MSShapeGroup" transform="translate(675.557529, 157.500000) rotate(-180.000000) translate(-675.557529, -157.500000) " points="675.557529 135 701.538291 180 649.576766 180 "></polygon>
                <polygon id="Polygon-1-Copy-145" fill="#F4A610" sketch:type="MSShapeGroup" transform="translate(597.615242, 202.500000) rotate(-180.000000) translate(-597.615242, -202.500000) " points="597.615242 180 623.596004 225 571.63448 225 "></polygon>
                <polygon id="Polygon-1-Copy-121" fill="#FEE480" sketch:type="MSShapeGroup" transform="translate(623.596004, 157.500000) rotate(-180.000000) translate(-623.596004, -157.500000) " points="623.596004 135 649.576766 180 597.615242 180 "></polygon>
                <polygon id="Polygon-1-Copy-122" fill="#FEE480" sketch:type="MSShapeGroup" transform="translate(571.634480, 157.500000) rotate(-180.000000) translate(-571.634480, -157.500000) " points="571.63448 135 597.615242 180 545.653718 180 "></polygon>
                <polygon id="Polygon-1-Copy-164" fill="#FEE480" sketch:type="MSShapeGroup" transform="translate(571.634480, 247.500000) rotate(-180.000000) translate(-571.634480, -247.500000) " points="571.63448 225 597.615242 270 545.653718 270 "></polygon>
                <polygon id="Polygon-1-Copy-144" fill="#FEE480" sketch:type="MSShapeGroup" transform="translate(441.730670, 202.500000) rotate(-180.000000) translate(-441.730670, -202.500000) " points="441.73067 180 467.711432 225 415.749907 225 "></polygon>
                <polygon id="Polygon-1-Copy-154" fill="#FEE480" sketch:type="MSShapeGroup" transform="translate(753.499815, 202.500000) rotate(-180.000000) translate(-753.499815, -202.500000) " points="753.499815 180 779.480577 225 727.519053 225 "></polygon>
                <polygon id="Polygon-1-Copy-159" fill="#FEE480" sketch:type="MSShapeGroup" transform="translate(727.519053, 247.500000) rotate(-180.000000) translate(-727.519053, -247.500000) " points="727.519053 225 753.499815 270 701.538291 270 "></polygon>
                <polygon id="Polygon-1-Copy-188" fill="#FEE480" sketch:type="MSShapeGroup" transform="translate(701.538291, 292.500000) rotate(-180.000000) translate(-701.538291, -292.500000) " points="701.538291 270 727.519053 315 675.557529 315 "></polygon>
                <polygon id="Polygon-1-Copy-189" fill="#FEE480" sketch:type="MSShapeGroup" transform="translate(753.499815, 292.500000) rotate(-180.000000) translate(-753.499815, -292.500000) " points="753.499815 270 779.480577 315 727.519053 315 "></polygon>
                <polygon id="Polygon-1-Copy-196" fill="#FEE480" sketch:type="MSShapeGroup" transform="translate(779.480577, 337.500000) rotate(-180.000000) translate(-779.480577, -337.500000) " points="779.480577 315 805.461339 360 753.499815 360 "></polygon>
                <polygon id="Polygon-1-Copy-219" fill="#FEE480" sketch:type="MSShapeGroup" transform="translate(519.672956, 517.500000) rotate(-180.000000) translate(-519.672956, -517.500000) " points="519.672956 495 545.653718 540 493.692194 540 "></polygon>
                <polygon id="Polygon-1-Copy-155" fill="#FEE480" sketch:type="MSShapeGroup" transform="translate(805.461339, 202.500000) rotate(-180.000000) translate(-805.461339, -202.500000) " points="805.461339 180 831.442101 225 779.480577 225 "></polygon>
                <polygon id="Polygon-1-Copy-101" fill="#FFCB00" sketch:type="MSShapeGroup" transform="translate(1013.307436, 112.500000) rotate(-180.000000) translate(-1013.307436, -112.500000) " points="1013.30744 75 1039.2882 120 987.326674 120 "></polygon>
                <polygon id="Polygon-1-Copy-64" fill="#FFCB00" sketch:type="MSShapeGroup" transform="translate(311.826859, 67.500000) rotate(-180.000000) translate(-311.826859, -67.500000) " points="311.826859 30 337.807621 75 285.846097 75 "></polygon>
                <polygon id="Polygon-1-Copy-65" fill="#FFCB00" sketch:type="MSShapeGroup" transform="translate(259.865335, 67.500000) rotate(-180.000000) translate(-259.865335, -67.500000) " points="259.865335 30 285.846097 75 233.884573 75 "></polygon>
                <polygon id="Polygon-1-Copy-69" fill="#FFCB00" sketch:type="MSShapeGroup" transform="translate(207.903811, 67.500000) rotate(-180.000000) translate(-207.903811, -67.500000) " points="207.903811 30 233.884573 75 181.923048 75 "></polygon>
                <polygon id="Polygon-1-Copy-72" fill="#FFCB00" sketch:type="MSShapeGroup" transform="translate(103.980762, 67.500000) rotate(-180.000000) translate(-103.980762, -67.500000) " points="103.980762 30 129.961524 75 78 75 "></polygon>
                <polygon id="Polygon-1-Copy-73" fill="#FFCB00" sketch:type="MSShapeGroup" transform="translate(129.961524, 112.500000) rotate(-180.000000) translate(-129.961524, -112.500000) " points="129.961524 75 155.942286 120 103.980762 120 "></polygon>
                <polygon id="Polygon-1-Copy-78" fill="#FFCB00" sketch:type="MSShapeGroup" transform="translate(233.884573, 112.500000) rotate(-180.000000) translate(-233.884573, -112.500000) " points="233.884573 75 259.865335 120 207.903811 120 "></polygon>
            </g>
        </g>
    </g>
</svg>